<mxfile host="Electron" agent="Mozilla/5.0 (Windows NT 10.0; Win64; x64) AppleWebKit/537.36 (KHTML, like Gecko) draw.io/24.7.17 Chrome/128.0.6613.36 Electron/32.0.1 Safari/537.36" version="24.7.17">
  <diagram name="Page-1" id="9TquNbIMCbtAV5zhOwuO">
    <mxGraphModel dx="600" dy="835" grid="1" gridSize="10" guides="1" tooltips="1" connect="1" arrows="1" fold="1" page="1" pageScale="1" pageWidth="827" pageHeight="1169" math="0" shadow="0">
      <root>
        <mxCell id="0" />
        <mxCell id="1" parent="0" />
        <mxCell id="JWfEg2-0Smn7HxO8pkx6-27" value="" style="rounded=0;whiteSpace=wrap;html=1;fillColor=#CCCCFF;" vertex="1" parent="1">
          <mxGeometry x="165" y="50" width="540" height="690" as="geometry" />
        </mxCell>
        <mxCell id="rfYDJJYG6BF60NP2ZTi7-2" value="" style="rounded=0;whiteSpace=wrap;html=1;fillColor=#CCCCFF;" parent="1" vertex="1">
          <mxGeometry x="220" y="220" width="430" height="60" as="geometry" />
        </mxCell>
        <mxCell id="rfYDJJYG6BF60NP2ZTi7-4" value="" style="rounded=0;whiteSpace=wrap;html=1;fillColor=#CCCCFF;" parent="1" vertex="1">
          <mxGeometry x="220" y="90" width="150" height="90" as="geometry" />
        </mxCell>
        <mxCell id="rfYDJJYG6BF60NP2ZTi7-5" value="" style="rounded=0;whiteSpace=wrap;html=1;fillColor=#CCCCFF;" parent="1" vertex="1">
          <mxGeometry x="414" y="70" width="236" height="60" as="geometry" />
        </mxCell>
        <mxCell id="rfYDJJYG6BF60NP2ZTi7-37" value="Nouveau" style="rounded=1;whiteSpace=wrap;html=1;fillColor=#B3B3B3;" parent="1" vertex="1">
          <mxGeometry x="530" y="235" width="100" height="30" as="geometry" />
        </mxCell>
        <mxCell id="rfYDJJYG6BF60NP2ZTi7-38" value="&lt;div style=&quot;text-align: left;&quot;&gt;&lt;span style=&quot;background-color: initial;&quot;&gt;Glissez les chiffres et obtenez la tuile &lt;/span&gt;&lt;b style=&quot;background-color: initial;&quot;&gt;2048 !&lt;/b&gt;&lt;/div&gt;" style="text;html=1;align=center;verticalAlign=middle;whiteSpace=wrap;rounded=0;" parent="1" vertex="1">
          <mxGeometry x="200" y="235" width="310" height="30" as="geometry" />
        </mxCell>
        <mxCell id="rfYDJJYG6BF60NP2ZTi7-39" value="&lt;font style=&quot;font-size: 48px;&quot;&gt;2048&lt;/font&gt;" style="text;html=1;align=center;verticalAlign=middle;whiteSpace=wrap;rounded=0;" parent="1" vertex="1">
          <mxGeometry x="265" y="120" width="60" height="30" as="geometry" />
        </mxCell>
        <mxCell id="rfYDJJYG6BF60NP2ZTi7-41" value="&lt;b&gt;TOP&lt;/b&gt;&lt;div&gt;23844&lt;/div&gt;" style="rounded=1;whiteSpace=wrap;html=1;fillColor=#9999FF;" parent="1" vertex="1">
          <mxGeometry x="534" y="75" width="106" height="50" as="geometry" />
        </mxCell>
        <mxCell id="rfYDJJYG6BF60NP2ZTi7-42" value="&lt;div&gt;&lt;b&gt;SCORE&lt;/b&gt;&lt;/div&gt;&lt;div&gt;23844&lt;/div&gt;" style="rounded=1;whiteSpace=wrap;html=1;fillColor=#9999FF;" parent="1" vertex="1">
          <mxGeometry x="424" y="75" width="106" height="50" as="geometry" />
        </mxCell>
        <mxCell id="JWfEg2-0Smn7HxO8pkx6-1" value="" style="whiteSpace=wrap;html=1;aspect=fixed;fillColor=#B3B3B3;" vertex="1" parent="1">
          <mxGeometry x="250" y="340" width="370" height="370" as="geometry" />
        </mxCell>
        <mxCell id="JWfEg2-0Smn7HxO8pkx6-2" value="" style="whiteSpace=wrap;html=1;aspect=fixed;fillColor=#A9C4EB;" vertex="1" parent="1">
          <mxGeometry x="260" y="440" width="80" height="80" as="geometry" />
        </mxCell>
        <mxCell id="JWfEg2-0Smn7HxO8pkx6-3" value="" style="whiteSpace=wrap;html=1;aspect=fixed;fillColor=#7EA6E0;" vertex="1" parent="1">
          <mxGeometry x="350" y="440" width="80" height="80" as="geometry" />
        </mxCell>
        <mxCell id="JWfEg2-0Smn7HxO8pkx6-4" value="&lt;font color=&quot;#ffffff&quot; style=&quot;font-size: 36px;&quot;&gt;128&lt;/font&gt;" style="whiteSpace=wrap;html=1;aspect=fixed;fillColor=#9AC7BF;" vertex="1" parent="1">
          <mxGeometry x="440" y="440" width="80" height="80" as="geometry" />
        </mxCell>
        <mxCell id="JWfEg2-0Smn7HxO8pkx6-5" value="" style="whiteSpace=wrap;html=1;aspect=fixed;fillColor=#67AB9F;" vertex="1" parent="1">
          <mxGeometry x="530" y="440" width="80" height="80" as="geometry" />
        </mxCell>
        <mxCell id="JWfEg2-0Smn7HxO8pkx6-6" value="" style="whiteSpace=wrap;html=1;aspect=fixed;fillColor=#C3ABD0;" vertex="1" parent="1">
          <mxGeometry x="440" y="350" width="80" height="80" as="geometry" />
        </mxCell>
        <mxCell id="JWfEg2-0Smn7HxO8pkx6-7" value="&lt;font color=&quot;#ffffff&quot; style=&quot;font-size: 36px;&quot;&gt;1024&lt;/font&gt;" style="whiteSpace=wrap;html=1;aspect=fixed;fillColor=#97D077;" vertex="1" parent="1">
          <mxGeometry x="350" y="530" width="80" height="80" as="geometry" />
        </mxCell>
        <mxCell id="JWfEg2-0Smn7HxO8pkx6-8" value="&lt;font color=&quot;#ffffff&quot; style=&quot;font-size: 36px;&quot;&gt;8192&lt;/font&gt;" style="whiteSpace=wrap;html=1;aspect=fixed;fillColor=#FFD966;" vertex="1" parent="1">
          <mxGeometry x="260" y="622.5" width="80" height="80" as="geometry" />
        </mxCell>
        <mxCell id="JWfEg2-0Smn7HxO8pkx6-9" value="&lt;font color=&quot;#ffffff&quot; style=&quot;font-size: 36px;&quot;&gt;512&lt;/font&gt;" style="whiteSpace=wrap;html=1;aspect=fixed;fillColor=#B9E0A5;" vertex="1" parent="1">
          <mxGeometry x="260" y="530" width="80" height="80" as="geometry" />
        </mxCell>
        <mxCell id="JWfEg2-0Smn7HxO8pkx6-10" value="" style="whiteSpace=wrap;html=1;aspect=fixed;fillColor=#FFFFFF;" vertex="1" parent="1">
          <mxGeometry x="350" y="622.5" width="80" height="80" as="geometry" />
        </mxCell>
        <mxCell id="JWfEg2-0Smn7HxO8pkx6-11" value="" style="whiteSpace=wrap;html=1;aspect=fixed;" vertex="1" parent="1">
          <mxGeometry x="440" y="622.5" width="80" height="80" as="geometry" />
        </mxCell>
        <mxCell id="JWfEg2-0Smn7HxO8pkx6-12" value="" style="whiteSpace=wrap;html=1;aspect=fixed;" vertex="1" parent="1">
          <mxGeometry x="530" y="622.5" width="80" height="80" as="geometry" />
        </mxCell>
        <mxCell id="JWfEg2-0Smn7HxO8pkx6-13" value="&lt;font color=&quot;#ffffff&quot; style=&quot;font-size: 36px;&quot;&gt;8&lt;/font&gt;" style="text;html=1;align=center;verticalAlign=middle;whiteSpace=wrap;rounded=0;" vertex="1" parent="1">
          <mxGeometry x="450" y="375" width="60" height="30" as="geometry" />
        </mxCell>
        <mxCell id="JWfEg2-0Smn7HxO8pkx6-14" value="&lt;font style=&quot;font-size: 36px;&quot;&gt;4&lt;/font&gt;" style="text;html=1;align=center;verticalAlign=middle;whiteSpace=wrap;rounded=0;" vertex="1" parent="1">
          <mxGeometry x="480" y="585" width="60" height="30" as="geometry" />
        </mxCell>
        <mxCell id="JWfEg2-0Smn7HxO8pkx6-15" value="" style="whiteSpace=wrap;html=1;aspect=fixed;fillColor=#FFD966;" vertex="1" parent="1">
          <mxGeometry x="440" y="530" width="80" height="80" as="geometry" />
        </mxCell>
        <mxCell id="JWfEg2-0Smn7HxO8pkx6-16" value="" style="whiteSpace=wrap;html=1;aspect=fixed;fillColor=#CDA2BE;" vertex="1" parent="1">
          <mxGeometry x="260" y="350" width="80" height="80" as="geometry" />
        </mxCell>
        <mxCell id="JWfEg2-0Smn7HxO8pkx6-17" value="" style="whiteSpace=wrap;html=1;aspect=fixed;fillColor=#B5739D;" vertex="1" parent="1">
          <mxGeometry x="350" y="350" width="80" height="80" as="geometry" />
        </mxCell>
        <mxCell id="JWfEg2-0Smn7HxO8pkx6-18" value="&lt;font color=&quot;#ffffff&quot; style=&quot;font-size: 36px;&quot;&gt;64&lt;/font&gt;" style="text;html=1;align=center;verticalAlign=middle;whiteSpace=wrap;rounded=0;" vertex="1" parent="1">
          <mxGeometry x="360" y="465" width="60" height="30" as="geometry" />
        </mxCell>
        <mxCell id="JWfEg2-0Smn7HxO8pkx6-19" value="&lt;font color=&quot;#ffffff&quot; style=&quot;font-size: 36px;&quot;&gt;4&lt;/font&gt;" style="text;html=1;align=center;verticalAlign=middle;whiteSpace=wrap;rounded=0;" vertex="1" parent="1">
          <mxGeometry x="360" y="375" width="60" height="30" as="geometry" />
        </mxCell>
        <mxCell id="JWfEg2-0Smn7HxO8pkx6-20" value="&lt;font color=&quot;#ffffff&quot; style=&quot;font-size: 36px;&quot;&gt;2&lt;/font&gt;" style="text;html=1;align=center;verticalAlign=middle;whiteSpace=wrap;rounded=0;" vertex="1" parent="1">
          <mxGeometry x="270" y="375" width="60" height="30" as="geometry" />
        </mxCell>
        <mxCell id="JWfEg2-0Smn7HxO8pkx6-21" value="" style="whiteSpace=wrap;html=1;aspect=fixed;fillColor=#A680B8;" vertex="1" parent="1">
          <mxGeometry x="530" y="350" width="80" height="80" as="geometry" />
        </mxCell>
        <mxCell id="JWfEg2-0Smn7HxO8pkx6-22" value="&lt;font color=&quot;#ffffff&quot; style=&quot;font-size: 36px;&quot;&gt;16&lt;/font&gt;" style="text;html=1;align=center;verticalAlign=middle;whiteSpace=wrap;rounded=0;" vertex="1" parent="1">
          <mxGeometry x="540" y="375" width="60" height="30" as="geometry" />
        </mxCell>
        <mxCell id="JWfEg2-0Smn7HxO8pkx6-23" value="&lt;font color=&quot;#ffffff&quot; style=&quot;font-size: 36px;&quot;&gt;4096&lt;/font&gt;" style="whiteSpace=wrap;html=1;aspect=fixed;fillColor=#FFD966;" vertex="1" parent="1">
          <mxGeometry x="530" y="530" width="80" height="80" as="geometry" />
        </mxCell>
        <mxCell id="JWfEg2-0Smn7HxO8pkx6-24" value="&lt;font color=&quot;#ffffff&quot; style=&quot;font-size: 36px;&quot;&gt;2048&lt;/font&gt;" style="text;html=1;align=center;verticalAlign=middle;whiteSpace=wrap;rounded=0;" vertex="1" parent="1">
          <mxGeometry x="440" y="552.5" width="80" height="35" as="geometry" />
        </mxCell>
        <mxCell id="JWfEg2-0Smn7HxO8pkx6-25" value="&lt;font color=&quot;#ffffff&quot; style=&quot;font-size: 36px;&quot;&gt;256&lt;/font&gt;" style="text;html=1;align=center;verticalAlign=middle;whiteSpace=wrap;rounded=0;" vertex="1" parent="1">
          <mxGeometry x="540" y="465" width="60" height="30" as="geometry" />
        </mxCell>
        <mxCell id="JWfEg2-0Smn7HxO8pkx6-26" value="&lt;font color=&quot;#ffffff&quot; style=&quot;font-size: 36px;&quot;&gt;32&lt;/font&gt;" style="text;html=1;align=center;verticalAlign=middle;whiteSpace=wrap;rounded=0;" vertex="1" parent="1">
          <mxGeometry x="270" y="465" width="60" height="30" as="geometry" />
        </mxCell>
      </root>
    </mxGraphModel>
  </diagram>
</mxfile>
